<?xml version="1.0" encoding="utf-8"?>
<!-- Generator: Adobe Illustrator 19.0.0, SVG Export Plug-In . SVG Version: 6.00 Build 0)  -->
<svg version="1.1" id="图层_1" xmlns="http://www.w3.org/2000/svg" xmlns:xlink="http://www.w3.org/1999/xlink" x="0px" y="0px"
	 viewBox="0 0 100 110" style="enable-background:new 0 0 100 110;" xml:space="preserve">
<style type="text/css">
	.st0{fill:#FF3645;}
</style>
<path id="XMLID_3_" class="st0" d="M23.9,47.2c3.3-7.2-7.3-9.5-7.3-9.5s2.6-3.7,5.4-4.3c15.6-4.4,18.2-13,18.3-14.8
	c0.9,2.8-1.9,12.9-8.8,18.8c4.5-4.4,10.1-3.2,12.4-5.9c-0.9,4.1-3.4,6.6-9,8.9c5.1-1.7,10.1-1.2,13.3-4.5c-1.3,2.7-4.4,6.9-11.4,9.7
	C34.4,46.4,30.1,48.3,23.9,47.2z"/>
<path id="XMLID_2_" class="st0" d="M3,77.9c29.6,8,34.8-14.5,34.8-14.5l-6.6-4.3l-8.5-1.4c0,0,2.3,4.4-0.5,6.9
	C23.7,68.1,18.5,79.7,3,77.9z"/>
<path id="XMLID_1_" class="st0" d="M97,25.7c-17.4,11.7-31.4,14.7-37.4,14c7.1-3.2,10.7-6.1,13.3-9.6C69.4,33,62.9,36,53.5,37
	c-0.7,0.3-1.3,0.7-2.7,2.3c-5.5,6.6-16.3,9-21.1,9.7c-7-0.2-13.5-1.2-15-0.8c-2.9,1.1-5.4,4.3-5.3,5.2c0.3,4.2-0.2,4.4,0.2,4.8
	c0.4,0.5,1,0.9,1,0.9s-0.4-0.9-0.1-1.3c0.3-0.4,1.6-4.1,5.2-3.1c8,3.4,5.5,11.9,5.5,12.3c0.5-0.6,1-1.2,1.4-1.8
	c0.6,4.1-4.8,14.4-19.5,12.6C26.9,84,33.4,66.4,34.6,62.1c1.3,1.2,2.5,2.6,3.2,4.1c2,2.5,8.7,4.3,12.8,3.9c-5-0.4-6.5-5.7-6.5-5.7
	s7.4,3.4,12.6,1.6c-2.4,0.1-6-1-7.6-4c6.1,3.7,18.2,3,25.2-3.8c-5.5,1.8-10,0.7-11.4,0.8c12.3-2.2,19.5-9.9,20.3-11
	c-2.8,1.5-8.6,4.2-16.2,3.6C76.8,48.4,87,39.3,97,25.7z"/>
</svg>
